<svg xmlns="http://www.w3.org/2000/svg" viewBox="0 0 512 512" width="100%" height="100%">
  <defs>
    <clipPath id="circle-clip">
      <circle cx="256" cy="256" r="240" />
    </clipPath>
    <linearGradient id="globe-gradient" x1="0%" y1="0%" x2="100%" y2="100%">
      <stop offset="0%" stop-color="#2c82c9" />
      <stop offset="70%" stop-color="#21618C" />
      <stop offset="100%" stop-color="#154360" />
    </linearGradient>
  </defs>
  
  <circle cx="256" cy="256" r="240" fill="url(#globe-gradient)" />
  
  <g stroke="#ffffff" stroke-width="14" fill="none" clip-path="url(#circle-clip)" opacity="0.9">
    <ellipse cx="256" cy="256" rx="80" ry="240" transform="rotate(25 256 256)" />
    <ellipse cx="256" cy="256" rx="170" ry="240" transform="rotate(25 256 256)" />
    
    <ellipse cx="256" cy="256" rx="240" ry="80" transform="rotate(25 256 256)" />
    <ellipse cx="256" cy="256" rx="240" ry="170" transform="rotate(25 256 256)" />
    
    <circle cx="256" cy="256" r="233" />
  </g>
  
  <g fill="#ffffff" transform="rotate(25 256 256)">
    <circle cx="256" cy="16" r="14" />
    <circle cx="256" cy="496" r="14" />
    <circle cx="16" cy="256" r="14" />
    <circle cx="496" cy="256" r="14" />
    
    <circle cx="176" cy="86" r="12" />
    <circle cx="336" cy="86" r="12" />
    
    <circle cx="86" cy="176" r="12" />
    <circle cx="426" cy="176" r="12" />
    
    <circle cx="86" cy="336" r="12" />
    <circle cx="426" cy="336" r="12" />
    
    <circle cx="176" cy="426" r="12" />
    <circle cx="336" cy="426" r="12" />
    
    <circle cx="176" cy="256" r="12" />
    <circle cx="336" cy="256" r="12" />
    <circle cx="256" cy="176" r="12" />
    <circle cx="256" cy="336" r="12" />
  </g>
</svg>
